<svg xmlns="http://www.w3.org/2000/svg" fill="currentColor" viewBox="0 0 28 28">
<symbol id="floppy" width="28px">
<path 
  fill="currentColor" 
  d="M0 0h1.615v1.615H0zM0 1.615h1.615V3.23H0zM0 3.231h1.615v1.615H0zM0 4.846h1.615v1.615H0zM0 
    6.462h1.615v1.615H0zM0 8.077h1.615v1.615H0zM0 9.692h1.615v1.615H0zM0 11.308h1.615v1.615H0zM0 
    12.923h1.615v1.615H0zM0 14.539h1.615v1.615H0zM0 16.154h1.615v1.615H0zM0 17.769h1.615v1.615H0zM0 
    19.385h1.615V21H0zM17.77 0v1.615h-1.616V0zM16.154 0v1.615h-1.615V0zM14.539 0v1.615h-1.615V0zM12.923 
    0v1.615h-1.615V0zM11.308 0v1.615H9.693V0zM9.692 0v1.615H8.077V0zM8.077 0v1.615H6.462V0zM6.462 
    0v1.615H4.847V0zM4.846 0v1.615H3.231V0zM3.23 0v1.615H1.617V0zM19.385 1.616V3.23H17.77V1.616zM4.846 
    3.23v1.616H3.23V3.23zM4.846 1.615V3.23H3.231V1.615zM4.846 4.846v1.615H3.231V4.846zM16.154 
    3.23v1.616h-1.615V3.23zM16.154 1.615V3.23H14.54V1.615zM16.154 4.846v1.615h-1.615V4.846zM12.923 
    3.23v1.616h-1.615V3.23zM12.923 1.615V3.23h-1.615V1.615zM12.923 4.846v1.615h-1.615V4.846zM16.153 
    6.462v1.615h-1.615V6.462z"/>
<path 
  fill="currentColor" 
  d="M14.538 6.462v1.615h-1.615V6.462zM12.923 6.461v1.615h-1.615V6.461zM11.307 6.462v1.615H9.692V6.462zM9.692 
    6.461v1.615H8.077V6.461zM8.076 6.462v1.615H6.461V6.462zM6.461 6.462v1.615H4.846V6.462zM4.846 
    6.461v1.615H3.23V6.461zM17.769 11.307v1.615h-1.615v-1.615zM16.154 11.308v1.615h-1.615v-1.615zM14.538 
    11.308v1.615h-1.615v-1.615zM12.923 11.308v1.615h-1.615v-1.615zM11.307 11.308v1.615H9.692v-1.615zM9.692 
    11.307v1.615H8.077v-1.615zM8.077 11.308v1.615H6.462v-1.615zM6.461 11.308v1.615H4.846v-1.615zM4.846 
    11.308v1.615H3.23v-1.615zM17.77 12.923v1.615h-1.616v-1.615zM4.846 12.923v1.615H3.231v-1.615z"/>
<path 
  fill="currentColor" 
  d="M17.769 14.538v1.615h-1.615v-1.615zM4.846 14.538v1.615H3.23v-1.615zM17.77 
    16.154v1.615h-1.616v-1.615zM4.846 16.154v1.615H3.231v-1.615zM4.846 17.77v1.614H3.231V17.77zM17.77 
    17.769v1.615h-1.616v-1.615zM19.384 19.385V21H17.77v-1.615zM17.769 19.384V21h-1.615v-1.615zM16.153 
    19.385V21H14.54v-1.615zM14.538 19.385V21h-1.615v-1.615zM12.923 19.384V21h-1.615v-1.615zM11.307 
    19.385V21H9.692v-1.615zM9.692 19.384V21H8.077v-1.615zM8.076 19.385V21H6.461v-1.615zM6.461 
    19.385V21H4.846v-1.615zM4.846 19.384V21H3.23v-1.615zM3.23 19.385V21H1.615v-1.615zM21 
    21h-1.615v-1.615H21zM21 19.384h-1.615V17.77H21zM21 17.77h-1.615v-1.616H21zM21 16.154h-1.615v-1.615H21zM21 
    14.538h-1.615v-1.615H21zM21 12.923h-1.615v-1.615H21zM21 11.307h-1.615V9.692H21z"/>
<path 
  fill="currentColor" 
  d="M21 9.693h-1.615V8.078H21zM21 8.077h-1.615V6.462H21zM21 6.461h-1.615V4.846H21zM21 
  4.846h-1.615V3.231H21z"/>
</svg>
<svg width="39" height="36" viewBox="0 0 39 36" fill="none" xmlns="http://www.w3.org/2000/svg">
<g clip-path="url(#clip0_0_1575)">
<path d="M12 6H9V9H12V6ZM15 6H12V9H15V6ZM9 9H6V12H9V9ZM9 12H6V15H9V12ZM9 15H6V18H9V15ZM18 6H15V9H18V6ZM12 18H9V21H12V18ZM15 21H12V24H15V21ZM18 24H15V27H18V24ZM27 6H30V9H27V6ZM24 6H27V9H24V6ZM30 9H33V12H30V9ZM30 12H33V15H30V12ZM30 15H33V18H30V15ZM21 6H24V9H21V6ZM27 18H30V21H27V18ZM24 21H27V24H24V21ZM21 24H24V27H21V24ZM21 27H18V30H21V27ZM21 9H18V12H21V9Z" fill="black"/>
<path d="M12 9H9V12H12V9ZM15 12H12V15H15V12ZM18 9H15V12H18V9ZM12 15H9V18H12V15ZM15 15H12V18H15V15ZM15 18H12V21H15V18ZM18 12H15V15H18V12ZM18 21H15V24H18V21ZM18 18H15V21H18V18ZM27 9H30V12H27V9ZM24 9H27V12H24V9ZM27 12H30V15H27V12ZM24 12H27V15H24V12ZM21 9H24V12H21V9ZM27 15H30V18H27V15ZM24 15H27V18H24V15ZM24 18H27V21H24V18ZM21 12H24V15H21V12ZM21 21H24V24H21V21ZM21 18H24V21H21V18ZM21 21H18V24H21V21ZM21 24H18V27H21V24Z" fill="#FF0000"/>
<path d="M18 15H15V18H18V15ZM21 15H24V18H21V15ZM21 15H18V18H21V15ZM21 12H18V15H21V12ZM21 18H18V21H21V18Z" fill="white"/>
<path d="M36 13H39V16H36V13ZM27 27H30V30H27V27ZM18 33H21V36H18V33ZM9 27H12V30H9V27ZM24 0H27V3H24V0ZM33 3H36V6H33V3ZM3 3H6V6H3V3ZM12 0H15V3H12V0ZM0 13H3V16H0V13Z" fill="#FF0000"/>
</g>
<defs>
<clipPath id="clip0_0_1575">
<rect width="39" height="36" fill="white"/>
</clipPath>
</defs>
</svg>
